<svg width="125" height="40" viewBox="0 0 125 40" fill="none" xmlns="http://www.w3.org/2000/svg">
<g clip-path="url(#clip0_1_2)">
<line x1="6" y1="3" x2="18" y2="3" stroke="#E3831C" stroke-width="6"/>
<line x1="6" y1="21" x2="26" y2="21" stroke="#E3831C" stroke-width="6"/>
<line x1="3" y1="24" x2="3" stroke="#E3831C" stroke-width="6"/>
<line x1="23" y1="18" x2="23" y2="6" stroke="#E3831C" stroke-width="6"/>
<path d="M34.5469 -0.171875V24H28.7197V-0.171875H34.5469ZM41.8184 -0.171875V4.32715H21.6143V-0.171875H41.8184ZM52.5098 4.9082L46.6162 24H40.3574L49.2393 -0.171875H53.207L52.5098 4.9082ZM57.3906 24L51.4805 4.9082L50.7168 -0.171875H54.7344L63.666 24H57.3906ZM57.1582 14.9854V19.4844H44.7568V14.9854H57.1582ZM65.4424 -0.171875H74.9551C76.8145 -0.171875 78.4303 0.104818 79.8027 0.658203C81.1751 1.21159 82.2321 2.0306 82.9736 3.11523C83.7262 4.19987 84.1025 5.53906 84.1025 7.13281C84.1025 8.51628 83.8867 9.67285 83.4551 10.6025C83.0234 11.5322 82.4202 12.3014 81.6455 12.9102C80.8818 13.5078 79.9909 14.0003 78.9727 14.3877L77.0635 15.4668H69.0781L69.0449 10.9678H74.9551C75.6966 10.9678 76.3109 10.835 76.7979 10.5693C77.2848 10.3037 77.6501 9.92741 77.8936 9.44043C78.1481 8.94238 78.2754 8.35026 78.2754 7.66406C78.2754 6.9668 78.1481 6.36914 77.8936 5.87109C77.639 5.37305 77.2627 4.99121 76.7646 4.72559C76.2777 4.45996 75.6745 4.32715 74.9551 4.32715H71.2695V24H65.4424V-0.171875ZM78.6738 24L73.3281 13.3086L79.5039 13.2754L84.916 23.751V24H78.6738ZM97.8652 4.9082L91.9717 24H85.7129L94.5947 -0.171875H98.5625L97.8652 4.9082ZM102.746 24L96.8359 4.9082L96.0723 -0.171875H100.09L109.021 24H102.746ZM102.514 14.9854V19.4844H90.1123V14.9854H102.514Z" fill="black"/>
<path d="M1.11523 34.6602V38H-0.00976562V29.4688H3.13672C4.07031 29.4688 4.80078 29.707 5.32812 30.1836C5.85938 30.6602 6.125 31.291 6.125 32.0762C6.125 32.9043 5.86523 33.543 5.3457 33.9922C4.83008 34.4375 4.08984 34.6602 3.125 34.6602H1.11523ZM1.11523 33.7402H3.13672C3.73828 33.7402 4.19922 33.5996 4.51953 33.3184C4.83984 33.0332 5 32.623 5 32.0879C5 31.5801 4.83984 31.1738 4.51953 30.8691C4.19922 30.5645 3.75977 30.4062 3.20117 30.3945H1.11523V33.7402ZM10.4551 32.6328C10.291 32.6055 10.1133 32.5918 9.92188 32.5918C9.21094 32.5918 8.72852 32.8945 8.47461 33.5V38H7.39062V31.6602H8.44531L8.46289 32.3926C8.81836 31.8262 9.32227 31.543 9.97461 31.543C10.1855 31.543 10.3457 31.5703 10.4551 31.625V32.6328ZM13.9707 38.1172C13.1113 38.1172 12.4121 37.8359 11.873 37.2734C11.334 36.707 11.0645 35.9512 11.0645 35.0059V34.8066C11.0645 34.1777 11.1836 33.6172 11.4219 33.125C11.6641 32.6289 12 32.2422 12.4297 31.9648C12.8633 31.6836 13.332 31.543 13.8359 31.543C14.6602 31.543 15.3008 31.8145 15.7578 32.3574C16.2148 32.9004 16.4434 33.6777 16.4434 34.6895V35.1406H12.1484C12.1641 35.7656 12.3457 36.2715 12.6934 36.6582C13.0449 37.041 13.4902 37.2324 14.0293 37.2324C14.4121 37.2324 14.7363 37.1543 15.002 36.998C15.2676 36.8418 15.5 36.6348 15.6992 36.377L16.3613 36.8926C15.8301 37.709 15.0332 38.1172 13.9707 38.1172ZM13.8359 32.4336C13.3984 32.4336 13.0312 32.5938 12.7344 32.9141C12.4375 33.2305 12.2539 33.6758 12.1836 34.25H15.3594V34.168C15.3281 33.6172 15.1797 33.1914 14.9141 32.8906C14.6484 32.5859 14.2891 32.4336 13.8359 32.4336ZM18.7227 31.6602L18.752 32.3633C19.2168 31.8164 19.8438 31.543 20.6328 31.543C21.5195 31.543 22.123 31.8828 22.4434 32.5625C22.6543 32.2578 22.9277 32.0117 23.2637 31.8242C23.6035 31.6367 24.0039 31.543 24.4648 31.543C25.8555 31.543 26.5625 32.2793 26.5859 33.752V38H25.502V33.8164C25.502 33.3633 25.3984 33.0254 25.1914 32.8027C24.9844 32.5762 24.6367 32.4629 24.1484 32.4629C23.7461 32.4629 23.4121 32.584 23.1465 32.8262C22.8809 33.0645 22.7266 33.3867 22.6836 33.793V38H21.5938V33.8457C21.5938 32.9238 21.1426 32.4629 20.2402 32.4629C19.5293 32.4629 19.043 32.7656 18.7812 33.3711V38H17.6973V31.6602H18.7227ZM29.4043 38H28.3203V31.6602H29.4043V38ZM28.2324 29.9785C28.2324 29.8027 28.2852 29.6543 28.3906 29.5332C28.5 29.4121 28.6602 29.3516 28.8711 29.3516C29.082 29.3516 29.2422 29.4121 29.3516 29.5332C29.4609 29.6543 29.5156 29.8027 29.5156 29.9785C29.5156 30.1543 29.4609 30.3008 29.3516 30.418C29.2422 30.5352 29.082 30.5938 28.8711 30.5938C28.6602 30.5938 28.5 30.5352 28.3906 30.418C28.2852 30.3008 28.2324 30.1543 28.2324 29.9785ZM35.0586 37.373C34.6367 37.8691 34.0176 38.1172 33.2012 38.1172C32.5254 38.1172 32.0098 37.9219 31.6543 37.5312C31.3027 37.1367 31.125 36.5547 31.1211 35.7852V31.6602H32.2051V35.7559C32.2051 36.7168 32.5957 37.1973 33.377 37.1973C34.2051 37.1973 34.7559 36.8887 35.0293 36.2715V31.6602H36.1133V38H35.082L35.0586 37.373ZM38.7852 31.6602L38.8145 32.3633C39.2793 31.8164 39.9062 31.543 40.6953 31.543C41.582 31.543 42.1855 31.8828 42.5059 32.5625C42.7168 32.2578 42.9902 32.0117 43.3262 31.8242C43.666 31.6367 44.0664 31.543 44.5273 31.543C45.918 31.543 46.625 32.2793 46.6484 33.752V38H45.5645V33.8164C45.5645 33.3633 45.4609 33.0254 45.2539 32.8027C45.0469 32.5762 44.6992 32.4629 44.2109 32.4629C43.8086 32.4629 43.4746 32.584 43.209 32.8262C42.9434 33.0645 42.7891 33.3867 42.7461 33.793V38H41.6562V33.8457C41.6562 32.9238 41.2051 32.4629 40.3027 32.4629C39.5918 32.4629 39.1055 32.7656 38.8438 33.3711V38H37.7598V31.6602H38.7852ZM51.4355 38V29.4688H53.8438C54.5859 29.4688 55.2422 29.6328 55.8125 29.9609C56.3828 30.2891 56.8223 30.7559 57.1309 31.3613C57.4434 31.9668 57.6016 32.6621 57.6055 33.4473V33.9922C57.6055 34.7969 57.4492 35.502 57.1367 36.1074C56.8281 36.7129 56.3848 37.1777 55.8066 37.502C55.2324 37.8262 54.5625 37.9922 53.7969 38H51.4355ZM52.5605 30.3945V37.0801H53.7441C54.6113 37.0801 55.2852 36.8105 55.7656 36.2715C56.25 35.7324 56.4922 34.9648 56.4922 33.9688V33.4707C56.4922 32.502 56.2637 31.75 55.8066 31.2148C55.3535 30.6758 54.709 30.4023 53.873 30.3945H52.5605ZM62.2051 32.6328C62.041 32.6055 61.8633 32.5918 61.6719 32.5918C60.9609 32.5918 60.4785 32.8945 60.2246 33.5V38H59.1406V31.6602H60.1953L60.2129 32.3926C60.5684 31.8262 61.0723 31.543 61.7246 31.543C61.9355 31.543 62.0957 31.5703 62.2051 31.625V32.6328ZM67.1211 37.373C66.6992 37.8691 66.0801 38.1172 65.2637 38.1172C64.5879 38.1172 64.0723 37.9219 63.7168 37.5312C63.3652 37.1367 63.1875 36.5547 63.1836 35.7852V31.6602H64.2676V35.7559C64.2676 36.7168 64.6582 37.1973 65.4395 37.1973C66.2676 37.1973 66.8184 36.8887 67.0918 36.2715V31.6602H68.1758V38H67.1445L67.1211 37.373ZM75.1836 34.9004C75.1836 35.8652 74.9629 36.6426 74.5215 37.2324C74.0801 37.8223 73.4824 38.1172 72.7285 38.1172C71.959 38.1172 71.3535 37.873 70.9121 37.3848V40.4375H69.8281V31.6602H70.8184L70.8711 32.3633C71.3125 31.8164 71.9258 31.543 72.7109 31.543C73.4727 31.543 74.0742 31.8301 74.5156 32.4043C74.9609 32.9785 75.1836 33.7773 75.1836 34.8008V34.9004ZM74.0996 34.7773C74.0996 34.0625 73.9473 33.498 73.6426 33.084C73.3379 32.6699 72.9199 32.4629 72.3887 32.4629C71.7324 32.4629 71.2402 32.7539 70.9121 33.3359V36.3652C71.2363 36.9434 71.7324 37.2324 72.4004 37.2324C72.9199 37.2324 73.332 37.0273 73.6367 36.6172C73.9453 36.2031 74.0996 35.5898 74.0996 34.7773ZM80.4805 38C80.418 37.875 80.3672 37.6523 80.3281 37.332C79.8242 37.8555 79.2227 38.1172 78.5234 38.1172C77.8984 38.1172 77.3848 37.9414 76.9824 37.5898C76.584 37.2344 76.3848 36.7852 76.3848 36.2422C76.3848 35.582 76.6348 35.0703 77.1348 34.707C77.6387 34.3398 78.3457 34.1562 79.2559 34.1562H80.3105V33.6582C80.3105 33.2793 80.1973 32.9785 79.9707 32.7559C79.7441 32.5293 79.4102 32.416 78.9688 32.416C78.582 32.416 78.2578 32.5137 77.9961 32.709C77.7344 32.9043 77.6035 33.1406 77.6035 33.418H76.5137C76.5137 33.1016 76.625 32.7969 76.8477 32.5039C77.0742 32.207 77.3789 31.9727 77.7617 31.8008C78.1484 31.6289 78.5723 31.543 79.0332 31.543C79.7637 31.543 80.3359 31.7266 80.75 32.0938C81.1641 32.457 81.3789 32.959 81.3945 33.5996V36.5176C81.3945 37.0996 81.4688 37.5625 81.6172 37.9062V38H80.4805ZM78.6816 37.1738C79.0215 37.1738 79.3438 37.0859 79.6484 36.9102C79.9531 36.7344 80.1738 36.5059 80.3105 36.2246V34.9238H79.4609C78.1328 34.9238 77.4688 35.3125 77.4688 36.0898C77.4688 36.4297 77.582 36.6953 77.8086 36.8867C78.0352 37.0781 78.3262 37.1738 78.6816 37.1738ZM84.2715 38H83.1875V29H84.2715V38ZM94.8184 30.3945H92.0762V38H90.957V30.3945H88.2207V29.4688H94.8184V30.3945ZM96.998 32.4277C97.4785 31.8379 98.1035 31.543 98.873 31.543C100.213 31.543 100.889 32.2988 100.9 33.8105V38H99.8164V33.8047C99.8125 33.3477 99.707 33.0098 99.5 32.791C99.2969 32.5723 98.9785 32.4629 98.5449 32.4629C98.1934 32.4629 97.8848 32.5566 97.6191 32.7441C97.3535 32.9316 97.1465 33.1777 96.998 33.4824V38H95.9141V29H96.998V32.4277ZM105.154 38.1172C104.295 38.1172 103.596 37.8359 103.057 37.2734C102.518 36.707 102.248 35.9512 102.248 35.0059V34.8066C102.248 34.1777 102.367 33.6172 102.605 33.125C102.848 32.6289 103.184 32.2422 103.613 31.9648C104.047 31.6836 104.516 31.543 105.02 31.543C105.844 31.543 106.484 31.8145 106.941 32.3574C107.398 32.9004 107.627 33.6777 107.627 34.6895V35.1406H103.332C103.348 35.7656 103.529 36.2715 103.877 36.6582C104.229 37.041 104.674 37.2324 105.213 37.2324C105.596 37.2324 105.92 37.1543 106.186 36.998C106.451 36.8418 106.684 36.6348 106.883 36.377L107.545 36.8926C107.014 37.709 106.217 38.1172 105.154 38.1172ZM105.02 32.4336C104.582 32.4336 104.215 32.5938 103.918 32.9141C103.621 33.2305 103.438 33.6758 103.367 34.25H106.543V34.168C106.512 33.6172 106.363 33.1914 106.098 32.8906C105.832 32.5859 105.473 32.4336 105.02 32.4336ZM109.906 31.6602L109.936 32.3633C110.4 31.8164 111.027 31.543 111.816 31.543C112.703 31.543 113.307 31.8828 113.627 32.5625C113.838 32.2578 114.111 32.0117 114.447 31.8242C114.787 31.6367 115.188 31.543 115.648 31.543C117.039 31.543 117.746 32.2793 117.77 33.752V38H116.686V33.8164C116.686 33.3633 116.582 33.0254 116.375 32.8027C116.168 32.5762 115.82 32.4629 115.332 32.4629C114.93 32.4629 114.596 32.584 114.33 32.8262C114.064 33.0645 113.91 33.3867 113.867 33.793V38H112.777V33.8457C112.777 32.9238 112.326 32.4629 111.424 32.4629C110.713 32.4629 110.227 32.7656 109.965 33.3711V38H108.881V31.6602H109.906ZM122.041 38.1172C121.182 38.1172 120.482 37.8359 119.943 37.2734C119.404 36.707 119.135 35.9512 119.135 35.0059V34.8066C119.135 34.1777 119.254 33.6172 119.492 33.125C119.734 32.6289 120.07 32.2422 120.5 31.9648C120.934 31.6836 121.402 31.543 121.906 31.543C122.73 31.543 123.371 31.8145 123.828 32.3574C124.285 32.9004 124.514 33.6777 124.514 34.6895V35.1406H120.219C120.234 35.7656 120.416 36.2715 120.764 36.6582C121.115 37.041 121.561 37.2324 122.1 37.2324C122.482 37.2324 122.807 37.1543 123.072 36.998C123.338 36.8418 123.57 36.6348 123.77 36.377L124.432 36.8926C123.9 37.709 123.104 38.1172 122.041 38.1172ZM121.906 32.4336C121.469 32.4336 121.102 32.5938 120.805 32.9141C120.508 33.2305 120.324 33.6758 120.254 34.25H123.43V34.168C123.398 33.6172 123.25 33.1914 122.984 32.8906C122.719 32.5859 122.359 32.4336 121.906 32.4336Z" fill="black"/>
</g>
<defs>
<clipPath id="clip0_1_2">
<rect width="125" height="40" fill="white"/>
</clipPath>
</defs>
</svg>
