<?xml version="1.0" encoding="UTF-8" standalone="no" ?>
<!DOCTYPE svg PUBLIC "-//W3C//DTD SVG 1.1//EN" "http://www.w3.org/Graphics/SVG/1.1/DTD/svg11.dtd">
<svg xmlns="http://www.w3.org/2000/svg"
    xmlns:xlink="http://www.w3.org/1999/xlink" version="1.1" width="1080" height="1080" viewBox="0 0 1080 1080" xml:space="preserve">
    <desc>Created with Fabric.js 5.2.4</desc>
    <defs>
    </defs>
    <g transform="matrix(1 0 0 1 540 540)" id="950f965c-8fb8-4879-ab6e-f013db5da0cc">
    </g>
    <g transform="matrix(1 0 0 1 540 540)" id="f132637a-d1db-486b-988c-231813708d62">
        <rect style="stroke: none; stroke-width: 1; stroke-dasharray: none; stroke-linecap: butt; stroke-dashoffset: 0; stroke-linejoin: miter; stroke-miterlimit: 4; fill: rgb(255,255,255); fill-rule: nonzero; opacity: 1; visibility: hidden;" vector-effect="non-scaling-stroke" x="-540" y="-540" rx="0" ry="0" width="1080" height="1080" />
    </g>
    <g transform="matrix(1 0 0 1 540 540)">
        <rect style="stroke: none; stroke-width: 1; stroke-dasharray: none; stroke-linecap: butt; stroke-dashoffset: 0; stroke-linejoin: miter; stroke-miterlimit: 4; fill: rgb(255,255,255); fill-rule: nonzero; opacity: 1; visibility: hidden;" vector-effect="non-scaling-stroke" x="-540" y="-540" rx="0" ry="0" width="1080" height="1080" />
    </g>
    <g transform="matrix(5.76 0 0 5.55 468.03 496.8)">
        <path style="stroke: none; stroke-width: 1; stroke-dasharray: none; stroke-linecap: butt; stroke-dashoffset: 0; stroke-linejoin: miter; stroke-miterlimit: 4; fill: rgb(255,255,255); fill-rule: nonzero; opacity: 1;" vector-effect="non-scaling-stroke" transform=" translate(-87.13, -85.78)" d="M 87.2 156.4 L 84.3 154.6 C 4.1 106.5 6.1 64.1 10.7 48.1 C 16.299999999999997 28.6 34.099999999999994 15.200000000000003 54.3 15.200000000000003 C 54.599999999999994 15.200000000000003 54.8 15.200000000000003 55.099999999999994 15.200000000000003 C 56.699999999999996 15.200000000000003 58.3 15.400000000000002 59.599999999999994 15.500000000000004 C 73.39999999999999 17.200000000000003 81.89999999999999 23.400000000000006 87.1 30.000000000000004 C 92.3 23.400000000000006 100.69999999999999 17.200000000000003 114.6 15.500000000000004 C 132.1 13.300000000000004 149.89999999999998 22.200000000000003 159 37.5 C 170.1 56.3 166.6 80.6 149.5 104.1 L 141.4 115.19999999999999 L 140.4 101.49999999999999 C 140 95.59999999999998 136.70000000000002 90.99999999999999 130.8 87.79999999999998 C 130.3 87.49999999999999 129.60000000000002 87.19999999999999 129.10000000000002 86.99999999999999 L 129.00000000000003 86.99999999999999 C 121.10000000000002 83.79999999999998 111.90000000000003 85.79999999999998 106.00000000000003 92.09999999999998 C 101.80000000000003 96.59999999999998 93.40000000000003 110.19999999999999 107.30000000000003 138.39999999999998 L 109.20000000000003 142.29999999999998 L 105.60000000000004 144.7 C 100.80000000000004 148 95.70000000000003 151.29999999999998 90.40000000000003 154.5 L 87.2 156.4 z M 54.4 25.2 C 38.599999999999994 25.2 24.7 35.7 20.299999999999997 50.9 C 12.199999999999998 79.2 37.099999999999994 114.19999999999999 87.2 144.8 C 90.4 142.9 93.5 140.9 96.5 138.9 C 90.8 126 83.5 101.60000000000001 98.7 85.30000000000001 C 107.3 76.00000000000001 121 73.00000000000001 132.7 77.80000000000001 C 133.79999999999998 78.20000000000002 134.7 78.70000000000002 135.5 79.10000000000001 C 141.1 82.10000000000001 144.7 85.80000000000001 147 89.60000000000001 C 156.8 72.4 158.1 55.60000000000001 150.4 42.60000000000001 C 143.4 30.70000000000001 129.5 23.800000000000008 115.80000000000001 25.500000000000007 C 104.10000000000001 26.900000000000006 96.00000000000001 32.300000000000004 91.70000000000002 41.7 L 87.20000000000002 51.400000000000006 L 82.70000000000002 41.7 C 78.30000000000001 32.300000000000004 70.20000000000002 26.900000000000002 58.600000000000016 25.500000000000004 C 57.600000000000016 25.400000000000002 56.30000000000002 25.200000000000003 55.20000000000002 25.200000000000003 C 54.8 25.2 54.6 25.2 54.4 25.2 z" stroke-linecap="round" />
    </g>
    <g transform="matrix(5.76 0 0 5.55 795.64 751.17)">
        <path style="stroke: none; stroke-width: 1; stroke-dasharray: none; stroke-linecap: butt; stroke-dashoffset: 0; stroke-linejoin: miter; stroke-miterlimit: 4; fill: rgb(255,255,255); fill-rule: nonzero; opacity: 1;" vector-effect="non-scaling-stroke" transform=" translate(-144.01, -131.65)" d="M 117.7 172.7 L 115.7 170.1 C 107 158.9 99.9 145.2 97.30000000000001 139.9 L 105.30000000000001 134.5 C 107.60000000000001 139.2 114.60000000000001 151.8 122.10000000000001 161.9 C 175.5 151.9 180.5 129 180.8 122.2 C 181.20000000000002 112.5 174.60000000000002 103.80000000000001 165.3 101.4 C 158.70000000000002 99.7 153.20000000000002 100.9 148.9 105 L 141.3 112.3 L 140.4 101.5 L 141.9 97.8 C 146.70000000000002 93.2 155 88.39999999999999 167.70000000000002 91.7 C 181.50000000000003 95.2 191.20000000000002 108.1 190.70000000000002 122.5 C 190.4 130 187.3 141.2 173.9 151.8 C 161.8 161.3 144.1 168.20000000000002 121.2 172.20000000000002 L 117.7 172.7 z M 147.2 101.1 L 150.29999999999998 101 L 147.2 101.1 z" stroke-linecap="round" />
    </g>
</svg>
