<svg width="100" height="100" viewBox="0 0 100 100" fill="none" xmlns="http://www.w3.org/2000/svg">
<path d="M83.3333 29.1667H16.6666C12.0643 29.1667 8.33331 32.8976 8.33331 37.5V79.1667C8.33331 83.769 12.0643 87.5 16.6666 87.5H83.3333C87.9357 87.5 91.6667 83.769 91.6667 79.1667V37.5C91.6667 32.8976 87.9357 29.1667 83.3333 29.1667Z" stroke="#E3831C" stroke-width="4" stroke-linecap="round" stroke-linejoin="round"/>
<path d="M66.6666 87.5V20.8333C66.6666 18.6232 65.7887 16.5036 64.2259 14.9408C62.6631 13.378 60.5434 12.5 58.3333 12.5H41.6666C39.4565 12.5 37.3369 13.378 35.7741 14.9408C34.2113 16.5036 33.3333 18.6232 33.3333 20.8333V87.5" stroke="#E3831C" stroke-width="4" stroke-linecap="round" stroke-linejoin="round"/>
</svg>
