<svg width="100" height="100" viewBox="0 0 100 100" fill="none" xmlns="http://www.w3.org/2000/svg">
<path d="M75 33.3333H79.1667C83.5869 33.3333 87.8262 35.0893 90.9518 38.2149C94.0774 41.3405 95.8333 45.5797 95.8333 50C95.8333 54.4203 94.0774 58.6595 90.9518 61.7851C87.8262 64.9107 83.5869 66.6667 79.1667 66.6667H75" stroke="#E3831C" stroke-width="4" stroke-linecap="round" stroke-linejoin="round"/>
<path d="M8.33331 33.3333H75V70.8333C75 75.2536 73.244 79.4928 70.1184 82.6184C66.9928 85.744 62.7536 87.5 58.3333 87.5H25C20.5797 87.5 16.3405 85.744 13.2149 82.6184C10.0893 79.4928 8.33331 75.2536 8.33331 70.8333V33.3333Z" stroke="#E3831C" stroke-width="4" stroke-linecap="round" stroke-linejoin="round"/>
<path d="M25 4.16667V16.6667" stroke="#E3831C" stroke-width="4" stroke-linecap="round" stroke-linejoin="round"/>
<path d="M41.6667 4.16667V16.6667" stroke="#E3831C" stroke-width="4" stroke-linecap="round" stroke-linejoin="round"/>
<path d="M58.3333 4.16667V16.6667" stroke="#E3831C" stroke-width="4" stroke-linecap="round" stroke-linejoin="round"/>
</svg>
